<svg width="120" height="120" viewBox="0 0 120 120" fill="none" xmlns="http://www.w3.org/2000/svg">
    <rect width="120" height="120" />
    <path d="M47.7829 77.9695C47.4212 77.9695 47.1622 77.916 47.0058 77.809C46.8592 77.702 46.7663 77.561 46.7272 77.3859C46.6881 77.2109 46.6686 77.0309 46.6686 76.8461V68.8805C46.6686 68.6859 46.6881 68.506 46.7272 68.3407C46.7663 68.1753 46.8641 68.0392 47.0204 67.9322C47.1768 67.8252 47.4359 67.7717 47.7975 67.7717C48.1592 67.7717 48.4133 67.8252 48.5599 67.9322C48.7163 68.0392 48.8092 68.1753 48.8385 68.3407C48.8776 68.506 48.8971 68.6908 48.8971 68.8951V76.8607C48.8971 77.0455 48.8776 77.2254 48.8385 77.4005C48.8092 77.5659 48.7163 77.702 48.5599 77.809C48.4035 77.916 48.1445 77.9695 47.7829 77.9695ZM41.5663 77.9695C41.2046 77.9695 40.9456 77.916 40.7892 77.809C40.6328 77.702 40.5351 77.561 40.496 77.3859C40.4667 77.2109 40.452 77.0309 40.452 76.8461V68.8805C40.452 68.6859 40.4716 68.506 40.5107 68.3407C40.5498 68.1753 40.6426 68.0392 40.7892 67.9322C40.9456 67.8252 41.2095 67.7717 41.581 67.7717C41.9426 67.7717 42.1968 67.8252 42.3434 67.9322C42.4998 68.0392 42.5926 68.1753 42.6219 68.3407C42.661 68.506 42.6806 68.6908 42.6806 68.8951V76.8607C42.6806 77.0455 42.661 77.2254 42.6219 77.4005C42.5926 77.5659 42.4998 77.702 42.3434 77.809C42.187 77.916 41.928 77.9695 41.5663 77.9695ZM42.3287 73.797V71.8712H46.9032V73.797H42.3287Z" fill="#111827"/>
    <path d="M53.8544 77.9695C53.5025 77.9695 53.2484 77.9209 53.092 77.8236C52.9356 77.7166 52.8379 77.5756 52.7988 77.4005C52.7694 77.2254 52.7548 77.0455 52.7548 76.8607V68.8805C52.7548 68.6859 52.7694 68.506 52.7988 68.3407C52.8379 68.1753 52.9356 68.0392 53.092 67.9322C53.2484 67.8252 53.5074 67.7717 53.8691 67.7717C54.2405 67.7717 54.4995 67.8252 54.6461 67.9322C54.8025 68.0392 54.8954 68.1753 54.9247 68.3407C54.9638 68.506 54.9833 68.6908 54.9833 68.8951V76.8753C54.9833 77.0601 54.9638 77.24 54.9247 77.4151C54.8856 77.5805 54.7879 77.7166 54.6315 77.8236C54.4848 77.9209 54.2258 77.9695 53.8544 77.9695Z" fill="#111827"/>
    <path d="M60.0331 77.9695C59.6813 77.9695 59.4271 77.916 59.2707 77.809C59.1143 77.702 59.0166 77.561 58.9775 77.3859C58.9482 77.2109 58.9335 77.0309 58.9335 76.8461V68.8659C58.9335 68.6811 58.9482 68.506 58.9775 68.3407C59.0166 68.1753 59.1143 68.0392 59.2707 67.9322C59.4271 67.8252 59.6862 67.7717 60.0478 67.7717H63.0974C63.4982 67.7717 63.9087 67.8446 64.329 67.9905C64.7493 68.1364 65.1354 68.3601 65.4873 68.6616C65.8392 68.9631 66.1226 69.3376 66.3377 69.785C66.5527 70.2324 66.6602 70.7625 66.6602 71.3752C66.6602 71.7837 66.5967 72.1776 66.4696 72.5569C66.3523 72.9362 66.1715 73.2864 65.9271 73.6073C65.6828 73.9283 65.3798 74.2055 65.0181 74.4389C64.6565 74.6626 64.2411 74.8231 63.7719 74.9204H61.1621V76.8607C61.1621 77.0455 61.1426 77.2254 61.1035 77.4005C61.0644 77.5659 60.9666 77.702 60.8102 77.809C60.6538 77.916 60.3948 77.9695 60.0331 77.9695ZM66.2204 77.6777C65.8587 77.9403 65.5704 78.0424 65.3553 77.9841C65.1403 77.9257 64.9155 77.7361 64.6809 77.4151L62.1004 73.7386L64.6076 73.4177L66.499 76.1167C66.6651 76.3501 66.7678 76.5495 66.8069 76.7148C66.8557 76.8802 66.8313 77.0358 66.7335 77.1817C66.6456 77.3276 66.4745 77.4929 66.2204 77.6777ZM61.1621 72.732H63.2001C63.3369 72.732 63.4786 72.7077 63.6253 72.6591C63.7719 72.6007 63.9038 72.518 64.0211 72.411C64.1384 72.3041 64.2362 72.163 64.3144 71.988C64.3926 71.8129 64.4317 71.6038 64.4317 71.3606C64.4317 71.0786 64.373 70.8354 64.2557 70.6312C64.1482 70.4269 63.9918 70.2713 63.7865 70.1643C63.5813 70.0476 63.3418 69.9892 63.0681 69.9892H61.1621V72.732Z" fill="#111827"/>
    <path d="M71.6647 77.9695C71.3128 77.9695 71.0587 77.9209 70.9023 77.8236C70.7459 77.7166 70.6481 77.5756 70.609 77.4005C70.5797 77.2254 70.565 77.0455 70.565 76.8607V68.8805C70.565 68.4525 70.6481 68.1607 70.8143 68.0051C70.9805 67.8495 71.2786 67.7717 71.7087 67.7717H77.2508C77.4463 67.7717 77.6271 67.7911 77.7933 67.83C77.9594 67.8592 78.0963 67.9516 78.2038 68.1072C78.3113 68.2629 78.3651 68.5255 78.3651 68.8951C78.3651 69.2452 78.3113 69.4981 78.2038 69.6537C78.0963 69.8093 77.9545 69.9066 77.7786 69.9455C77.6124 69.9747 77.4316 69.9892 77.2361 69.9892H72.7936V71.8712H75.8139C76.0094 71.8712 76.1805 71.8858 76.3271 71.915C76.4835 71.9442 76.6057 72.0269 76.6936 72.163C76.7816 72.2992 76.8256 72.5278 76.8256 72.8487C76.8256 73.1502 76.7816 73.3691 76.6936 73.5052C76.6057 73.6414 76.4835 73.7241 76.3271 73.7532C76.1707 73.7824 75.9899 73.797 75.7846 73.797H72.7936V75.7519H77.2508C77.4463 75.7519 77.6271 75.7714 77.7933 75.8103C77.9594 75.8492 78.0963 75.9465 78.2038 76.1021C78.3113 76.248 78.3651 76.5057 78.3651 76.8753C78.3651 77.2254 78.3113 77.4783 78.2038 77.6339C78.0963 77.7896 77.9545 77.882 77.7786 77.9111C77.6124 77.95 77.4316 77.9695 77.2361 77.9695H71.6647Z" fill="#111827"/>
    <path d="M2.31955 62.629C1.92857 62.629 1.63534 62.5707 1.43985 62.454C1.26391 62.3567 1.14662 62.2108 1.08797 62.0163C1.02932 61.8023 1 61.5592 1 61.2868V43.5756C1 43.0699 1.09774 42.7295 1.29323 42.5544C1.50827 42.3599 1.8797 42.2626 2.40752 42.2626H14.1955C14.4692 42.2626 14.694 42.2918 14.87 42.3501C15.0654 42.4085 15.2121 42.5349 15.3098 42.7295C15.4075 42.924 15.4564 43.2158 15.4564 43.6048C15.4564 43.9938 15.3978 44.2856 15.2805 44.4802C15.1827 44.6552 15.0361 44.7719 14.8406 44.8303C14.6451 44.8886 14.4106 44.9178 14.1369 44.9178H3.6391V50.9577H10.9406C11.2143 50.9577 11.4391 50.9869 11.6151 51.0453C11.8105 51.1036 11.9572 51.2203 12.0549 51.3954C12.1527 51.5705 12.2015 51.8428 12.2015 52.2124C12.2015 52.5625 12.1527 52.8251 12.0549 53.0002C11.9572 53.1753 11.8105 53.292 11.6151 53.3503C11.4391 53.3892 11.2045 53.4087 10.9113 53.4087H3.6391V61.316C3.6391 61.5883 3.60978 61.8218 3.55113 62.0163C3.49249 62.2108 3.36542 62.3567 3.16993 62.454C2.99399 62.5707 2.71053 62.629 2.31955 62.629Z" fill="#111827"/>
    <path d="M18.6611 62.629C18.2897 62.629 18.0063 62.5707 17.8108 62.454C17.6348 62.3567 17.5175 62.2108 17.4589 62.0163C17.4198 61.8023 17.4002 61.5592 17.4002 61.2868V49.7906C17.4002 49.4988 17.4296 49.2557 17.4882 49.0611C17.5469 48.8666 17.6641 48.7305 17.8401 48.6526C18.016 48.5554 18.2995 48.5068 18.6905 48.5068C19.0423 48.5068 19.3063 48.5554 19.4822 48.6526C19.6777 48.7305 19.8048 48.8569 19.8634 49.032C19.9416 49.1876 19.9807 49.3724 19.9807 49.5863L19.8634 50.4617C20.0002 50.2088 20.1566 49.9559 20.3326 49.7031C20.5281 49.4502 20.7627 49.2265 21.0363 49.032C21.3296 48.818 21.6717 48.6429 22.0627 48.5068C22.4732 48.3706 22.9717 48.3025 23.5581 48.3025C23.8514 48.3025 24.1251 48.3317 24.3792 48.39C24.6529 48.4289 24.907 48.497 25.1416 48.5943C25.3957 48.6915 25.6108 48.8083 25.7867 48.9444C25.9627 49.0611 26.0995 49.1973 26.1972 49.3529C26.3145 49.4891 26.3732 49.6544 26.3732 49.849C26.3732 50.2769 26.2363 50.6465 25.9627 50.9577C25.689 51.2495 25.4055 51.3954 25.1123 51.3954C24.8581 51.3954 24.6724 51.3662 24.5551 51.3079C24.4378 51.2301 24.3206 51.1522 24.2033 51.0744C24.1055 50.9966 23.9589 50.9285 23.7634 50.8702C23.5679 50.7924 23.2551 50.7535 22.8251 50.7535C22.5318 50.7535 22.219 50.8118 21.8867 50.9285C21.5739 51.0453 21.2709 51.2203 20.9777 51.4538C20.6845 51.6677 20.4401 51.9498 20.2446 52.2999C20.0687 52.6501 19.9807 53.0586 19.9807 53.5254V61.3452C19.9807 61.6175 19.9514 61.8509 19.8927 62.0455C19.8341 62.24 19.707 62.3859 19.5115 62.4831C19.3356 62.5804 19.0521 62.629 18.6611 62.629Z" fill="#111827"/>
    <path d="M35.2758 62.8041C34.3179 62.8041 33.3991 62.6193 32.5194 62.2497C31.6593 61.8801 30.8871 61.3744 30.2029 60.7324C29.5187 60.0711 28.9811 59.3027 28.5901 58.4274C28.1991 57.552 28.0036 56.5989 28.0036 55.5679C28.0036 54.5564 28.1893 53.6227 28.5608 52.7668C28.9322 51.8914 29.4502 51.1231 30.1149 50.4617C30.7796 49.8003 31.542 49.2848 32.4021 48.9152C33.2818 48.5262 34.2202 48.3317 35.2172 48.3317C36.566 48.3317 37.7781 48.6526 38.8533 49.2946C39.948 49.917 40.8179 50.7729 41.463 51.8623C42.1082 52.9516 42.4307 54.1771 42.4307 55.5387C42.4307 56.6086 42.2352 57.5909 41.8442 58.4857C41.4533 59.3611 40.9254 60.1197 40.2608 60.7616C39.5961 61.4035 38.8337 61.9093 37.9736 62.2789C37.1134 62.629 36.2142 62.8041 35.2758 62.8041ZM35.2172 60.2656C36.0382 60.2656 36.8006 60.0613 37.5044 59.6528C38.2081 59.2444 38.7751 58.6802 39.2051 57.9605C39.6352 57.2408 39.8503 56.4238 39.8503 55.5095C39.8503 54.5953 39.645 53.788 39.2345 53.0877C38.8435 52.3875 38.2961 51.8428 37.5924 51.4538C36.8886 51.0647 36.0871 50.8702 35.1878 50.8702C34.3277 50.8702 33.5457 51.0744 32.842 51.4829C32.1578 51.8914 31.6006 52.4458 31.1705 53.1461C30.76 53.8464 30.5547 54.6439 30.5547 55.5387C30.5547 56.4724 30.7698 57.2991 31.1999 58.0189C31.6299 58.7191 32.1969 59.2735 32.9006 59.682C33.6239 60.0711 34.3961 60.2656 35.2172 60.2656Z" fill="#111827"/>
    <path d="M46.5527 62.5998C46.1813 62.5998 45.8978 62.5415 45.7023 62.4248C45.5264 62.3275 45.4091 62.1816 45.3504 61.9871C45.3113 61.7926 45.2918 61.5592 45.2918 61.2868V49.7031C45.2918 49.4502 45.3211 49.2362 45.3798 49.0611C45.4384 48.8861 45.5557 48.7499 45.7317 48.6526C45.9271 48.5554 46.2106 48.5068 46.582 48.5068C46.8753 48.5068 47.1001 48.5457 47.2565 48.6235C47.4324 48.6818 47.5497 48.7694 47.6083 48.8861C47.6865 49.0028 47.7354 49.1292 47.755 49.2654C47.7745 49.4016 47.7843 49.528 47.7843 49.6447L47.7256 50.9869C47.9211 50.6562 48.1655 50.345 48.4587 50.0532C48.752 49.742 49.0941 49.4696 49.485 49.2362C49.876 48.9833 50.2963 48.7888 50.7459 48.6526C51.2151 48.5165 51.7136 48.4484 52.2414 48.4484C53.1016 48.4484 53.8933 48.604 54.6166 48.9152C55.3399 49.207 55.9557 49.6447 56.464 50.2283C56.9918 50.7924 57.3926 51.4732 57.6663 52.2707C57.9595 53.0683 58.1061 53.9728 58.1061 54.9843V61.316C58.1061 61.5883 58.0768 61.8218 58.0181 62.0163C57.979 62.2108 57.8618 62.3567 57.6663 62.454C57.4903 62.5512 57.2166 62.5998 56.8452 62.5998C56.4542 62.5998 56.161 62.5415 55.9655 62.4248C55.7896 62.3275 55.6723 62.1816 55.6136 61.9871C55.555 61.7926 55.5257 61.5592 55.5257 61.2868V54.9551C55.5257 54.1382 55.3888 53.4282 55.1151 52.8251C54.8414 52.2221 54.4309 51.7553 53.8835 51.4246C53.3362 51.0744 52.6422 50.8994 51.8016 50.8994C51.0001 50.8994 50.2963 51.0744 49.6903 51.4246C49.1038 51.7553 48.6444 52.2221 48.3121 52.8251C47.9993 53.4282 47.8429 54.1382 47.8429 54.9551V61.316C47.8429 61.5883 47.8136 61.8218 47.755 62.0163C47.6963 62.2108 47.5692 62.3567 47.3738 62.454C47.1978 62.5512 46.9241 62.5998 46.5527 62.5998Z" fill="#111827"/>
    <path d="M67.9844 62.629C67.0656 62.629 66.2837 62.5415 65.6385 62.3664C65.013 62.1914 64.4949 61.919 64.0844 61.5494C63.6739 61.1798 63.3807 60.7033 63.2047 60.1197C63.0288 59.5167 62.9408 58.7775 62.9408 57.9021V45.0054C62.9408 44.733 62.9701 44.4996 63.0288 44.3051C63.0874 44.1106 63.2047 43.9647 63.3807 43.8674C63.5566 43.7507 63.8303 43.6923 64.2017 43.6923C64.5731 43.6923 64.8566 43.7507 65.0521 43.8674C65.2476 43.9647 65.3746 44.1106 65.4333 44.3051C65.4919 44.4802 65.5213 44.7039 65.5213 44.9762V57.9021C65.5213 58.4079 65.5604 58.8164 65.6385 59.1276C65.7363 59.4194 65.8731 59.6431 66.0491 59.7987C66.2446 59.9544 66.4987 60.0516 66.8115 60.0905C67.1243 60.1294 67.5055 60.1489 67.9551 60.1489C68.2679 60.1489 68.522 60.1781 68.7175 60.2364C68.913 60.2948 69.0596 60.4115 69.1574 60.5865C69.2551 60.7616 69.304 61.0242 69.304 61.3744C69.304 61.744 69.2453 62.026 69.128 62.2205C69.0303 62.3956 68.8739 62.5026 68.6589 62.5415C68.4634 62.5999 68.2385 62.629 67.9844 62.629ZM61.416 48.8277L64.231 48.8569L68.307 48.7985C68.5807 48.7985 68.8153 48.8277 69.0107 48.8861C69.2062 48.925 69.3529 49.0417 69.4506 49.2362C69.5679 49.4113 69.6265 49.6836 69.6265 50.0532C69.6265 50.4228 69.5777 50.7048 69.4799 50.8994C69.3822 51.0744 69.2355 51.1912 69.0401 51.2495C68.8446 51.3079 68.61 51.337 68.3363 51.337L64.319 51.2787L61.3573 51.3079C60.9468 51.3079 60.6634 51.2106 60.507 51.0161C60.3701 50.8216 60.3017 50.5006 60.3017 50.0532C60.3017 49.6253 60.3897 49.314 60.5656 49.1195C60.7415 48.925 61.025 48.8277 61.416 48.8277Z" fill="#111827"/>
    <path d="M79.0093 62.7749C77.8364 62.7749 76.7905 62.5804 75.8717 62.1914C74.9529 61.8023 74.171 61.2771 73.5258 60.6157C72.9003 59.9349 72.4213 59.1568 72.089 58.2815C71.7567 57.4061 71.5905 56.4627 71.5905 55.4512C71.5905 54.109 71.9033 52.9127 72.5289 51.8623C73.1544 50.8118 74.0146 49.9851 75.1093 49.3821C76.2236 48.7596 77.4943 48.4484 78.9213 48.4484C79.8988 48.4484 80.7687 48.604 81.5311 48.9152C82.3131 49.207 82.9778 49.6058 83.5251 50.1116C84.0725 50.6173 84.4928 51.1814 84.786 51.8039C85.0793 52.4264 85.2259 53.0488 85.2259 53.6713C85.2259 54.6634 84.9913 55.3636 84.5221 55.7721C84.0529 56.1612 83.4762 56.3557 82.792 56.3557H74.3176C74.298 57.2116 74.5228 57.9508 74.992 58.5732C75.4807 59.1763 76.0868 59.6431 76.8101 59.9738C77.5529 60.3045 78.2958 60.4698 79.0386 60.4698C79.586 60.4698 80.0552 60.4407 80.4462 60.3823C80.8371 60.3239 81.1792 60.2461 81.4725 60.1489C81.7657 60.0516 82.0199 59.9544 82.2349 59.8571C82.4499 59.7598 82.6356 59.6626 82.792 59.5653C82.968 59.468 83.1341 59.4 83.2905 59.3611C83.4665 59.3222 83.6326 59.3416 83.789 59.4194C83.965 59.4778 84.1018 59.6042 84.1996 59.7987C84.3168 59.9544 84.3951 60.1002 84.4341 60.2364C84.4732 60.3726 84.4928 60.5185 84.4928 60.6741C84.4928 60.9464 84.2582 61.2479 83.789 61.5786C83.3199 61.9093 82.665 62.1914 81.8244 62.4248C81.0033 62.6582 80.065 62.7749 79.0093 62.7749ZM74.3176 54.6342H81.6777C82.0492 54.6342 82.3229 54.5856 82.4988 54.4883C82.6943 54.391 82.792 54.1284 82.792 53.7005C82.792 53.1558 82.6259 52.6695 82.2935 52.2416C81.9612 51.7942 81.5018 51.4343 80.9153 51.162C80.3484 50.8896 79.6935 50.7535 78.9507 50.7535C78.0905 50.7535 77.2988 50.9285 76.5755 51.2787C75.8717 51.6094 75.3146 52.0665 74.9041 52.6501C74.4935 53.2336 74.298 53.895 74.3176 54.6342Z" fill="#111827"/>
    <path d="M89.4496 62.5998C89.0782 62.5998 88.7947 62.5415 88.5992 62.4248C88.4233 62.3275 88.306 62.1816 88.2473 61.9871C88.2082 61.7926 88.1887 61.5592 88.1887 61.2868V49.7031C88.1887 49.4502 88.218 49.2362 88.2766 49.0611C88.3353 48.8861 88.4526 48.7499 88.6285 48.6526C88.824 48.5554 89.1075 48.5068 89.4789 48.5068C89.7721 48.5068 89.997 48.5457 90.1534 48.6235C90.3293 48.6818 90.4466 48.7694 90.5052 48.8861C90.5834 49.0028 90.6323 49.1292 90.6518 49.2654C90.6714 49.4016 90.6812 49.528 90.6812 49.6447L90.6225 50.9869C90.818 50.6562 91.0624 50.345 91.3556 50.0532C91.6488 49.742 91.9909 49.4696 92.3819 49.2362C92.7729 48.9833 93.1932 48.7888 93.6428 48.6526C94.112 48.5165 94.6105 48.4484 95.1383 48.4484C95.9985 48.4484 96.7902 48.604 97.5135 48.9152C98.2368 49.207 98.8526 49.6447 99.3609 50.2283C99.8887 50.7924 100.289 51.4732 100.563 52.2707C100.856 53.0683 101.003 53.9728 101.003 54.9843V61.316C101.003 61.5883 100.974 61.8218 100.915 62.0163C100.876 62.2108 100.759 62.3567 100.563 62.454C100.387 62.5512 100.114 62.5998 99.7421 62.5998C99.3511 62.5998 99.0579 62.5415 98.8624 62.4248C98.6864 62.3275 98.5692 62.1816 98.5105 61.9871C98.4519 61.7926 98.4225 61.5592 98.4225 61.2868V54.9551C98.4225 54.1382 98.2857 53.4282 98.012 52.8251C97.7383 52.2221 97.3278 51.7553 96.7804 51.4246C96.2331 51.0744 95.5391 50.8994 94.6985 50.8994C93.897 50.8994 93.1932 51.0744 92.5872 51.4246C92.0007 51.7553 91.5413 52.2221 91.209 52.8251C90.8962 53.4282 90.7398 54.1382 90.7398 54.9551V61.316C90.7398 61.5883 90.7105 61.8218 90.6518 62.0163C90.5932 62.2108 90.4661 62.3567 90.2706 62.454C90.0947 62.5512 89.821 62.5998 89.4496 62.5998Z" fill="#111827"/>
    <path d="M110.611 62.629C109.731 62.629 108.89 62.454 108.089 62.1038C107.287 61.7537 106.583 61.2576 105.977 60.6157C105.391 59.9738 104.922 59.2249 104.57 58.369C104.238 57.4937 104.071 56.5405 104.071 55.5095C104.071 54.498 104.238 53.5643 104.57 52.7084C104.922 51.8525 105.391 51.1133 105.977 50.4909C106.583 49.849 107.287 49.3529 108.089 49.0028C108.89 48.6526 109.731 48.4776 110.611 48.4776C111.568 48.4776 112.429 48.6526 113.191 49.0028C113.973 49.3529 114.638 49.849 115.185 50.4909C115.752 51.1133 116.182 51.8623 116.475 52.7376C116.768 53.5935 116.915 54.5272 116.915 55.5387C116.935 56.5697 116.788 57.5131 116.475 58.369C116.182 59.2249 115.762 59.9738 115.214 60.6157C114.667 61.2576 114.002 61.7537 113.22 62.1038C112.458 62.454 111.588 62.629 110.611 62.629ZM110.992 60.1489C111.813 60.1489 112.546 59.9544 113.191 59.5653C113.856 59.1763 114.374 58.6413 114.745 57.9605C115.136 57.2602 115.332 56.4627 115.332 55.5679C115.332 54.6536 115.136 53.8561 114.745 53.1753C114.374 52.475 113.856 51.9303 113.191 51.5413C112.546 51.1522 111.813 50.9577 110.992 50.9577C110.171 50.9577 109.428 51.1522 108.763 51.5413C108.098 51.9303 107.571 52.475 107.18 53.1753C106.808 53.8561 106.623 54.6536 106.623 55.5679C106.623 56.4627 106.808 57.2602 107.18 57.9605C107.571 58.6413 108.098 59.1763 108.763 59.5653C109.447 59.9544 110.19 60.1489 110.992 60.1489ZM116.739 62.629C116.309 62.629 115.996 62.5512 115.801 62.3956C115.605 62.24 115.488 61.9774 115.449 61.6078V43.3422C115.449 43.0504 115.468 42.8073 115.508 42.6127C115.566 42.4182 115.683 42.2723 115.859 42.1751C116.055 42.0584 116.338 42 116.71 42C117.081 42 117.355 42.0584 117.531 42.1751C117.726 42.2723 117.853 42.4182 117.912 42.6127C117.971 42.8073 118 43.0407 118 43.313V61.2868C118 61.5592 117.971 61.8023 117.912 62.0163C117.853 62.2108 117.736 62.3567 117.56 62.454C117.384 62.5707 117.111 62.629 116.739 62.629Z" fill="#111827"/>
    <path d="M7.51975 72.3673C7.51975 71.3601 8.34029 70.5436 9.35246 70.5436H33.1777C34.1899 70.5436 35.0104 71.3601 35.0104 72.3673C35.0104 73.3744 34.1899 74.1909 33.1777 74.1909H9.35246C8.34029 74.1909 7.51975 73.3744 7.51975 72.3673Z" fill="#111827"/>
    <path d="M83.5772 72.3673C83.5772 71.3601 84.3978 70.5436 85.41 70.5436H109.235C110.247 70.5436 111.068 71.3601 111.068 72.3673C111.068 73.3744 110.247 74.1909 109.235 74.1909H85.41C84.3978 74.1909 83.5772 73.3744 83.5772 72.3673Z" fill="#111827"/>
    <style>
            path { fill: #FFF; }
            rect { fill: #000; }
            @media (prefers-color-scheme: dark) {
                path { fill: #000; }
                rect { fill: #FFF; }
            }
        </style>
</svg>
